<svg width="555" height="555" viewBox="0 0 555 555" fill="none" xmlns="http://www.w3.org/2000/svg">
<rect width="555" height="555" fill="black"/>
<mask id="path-1-outside-1_417_2" maskUnits="userSpaceOnUse" x="97" y="183" width="322" height="283" fill="black">
<rect fill="white" x="97" y="183" width="322" height="283"/>
<path d="M100.717 250H153.217L157.717 269.8H158.917C163.517 263.4 170.117 257.8 178.717 253C187.317 248.2 197.617 245.8 209.617 245.8C217.017 245.8 223.917 246.8 230.317 248.8C236.917 250.8 242.517 254.1 247.117 258.7C251.717 263.3 255.317 269.6 257.917 277.6C260.717 285.4 262.117 295.1 262.117 306.7V400H223.117V314.8C223.117 302.6 220.317 293.8 214.717 288.4C209.317 283 202.417 280.3 194.017 280.3C186.617 280.3 179.817 282.5 173.617 286.9C167.617 291.1 163.517 296.4 161.317 302.8V400H122.317V283H100.717V250ZM305.2 250H415.6V388.3C415.6 411.3 409.6 429.4 397.6 442.6C385.6 455.8 367.6 462.4 343.6 462.4C333.8 462.4 324.5 460.9 315.7 457.9C306.9 454.9 299.3 450.5 292.9 444.7L310.3 415.9C312.5 417.7 316.4 419.9 322 422.5C327.8 425.3 334.3 426.7 341.5 426.7C346.3 426.7 350.8 425.9 355 424.3C359.4 422.9 363.2 420.4 366.4 416.8C369.6 413.4 372.1 408.9 373.9 403.3C375.7 397.7 376.6 390.7 376.6 382.3V283H305.2V250ZM354.1 209.2C354.1 203 356.4 197.7 361 193.3C365.6 188.9 372 186.7 380.2 186.7C388.6 186.7 395.3 188.9 400.3 193.3C405.3 197.7 407.8 203 407.8 209.2C407.8 215.6 405.3 220.9 400.3 225.1C395.3 229.1 388.6 231.1 380.2 231.1C372 231.1 365.6 229.1 361 225.1C356.4 220.9 354.1 215.6 354.1 209.2Z"/>
</mask>
<path d="M100.717 250H153.217L157.717 269.8H158.917C163.517 263.4 170.117 257.8 178.717 253C187.317 248.2 197.617 245.8 209.617 245.8C217.017 245.8 223.917 246.8 230.317 248.8C236.917 250.8 242.517 254.1 247.117 258.7C251.717 263.3 255.317 269.6 257.917 277.6C260.717 285.4 262.117 295.1 262.117 306.7V400H223.117V314.8C223.117 302.6 220.317 293.8 214.717 288.4C209.317 283 202.417 280.3 194.017 280.3C186.617 280.3 179.817 282.5 173.617 286.9C167.617 291.1 163.517 296.4 161.317 302.8V400H122.317V283H100.717V250ZM305.2 250H415.6V388.3C415.6 411.3 409.6 429.4 397.6 442.6C385.6 455.8 367.6 462.4 343.6 462.4C333.8 462.4 324.5 460.9 315.7 457.9C306.9 454.9 299.3 450.5 292.9 444.7L310.3 415.9C312.5 417.7 316.4 419.9 322 422.5C327.8 425.3 334.3 426.7 341.5 426.7C346.3 426.7 350.8 425.9 355 424.3C359.4 422.9 363.2 420.4 366.4 416.8C369.6 413.4 372.1 408.9 373.9 403.3C375.7 397.7 376.6 390.7 376.6 382.3V283H305.2V250ZM354.1 209.2C354.1 203 356.4 197.7 361 193.3C365.6 188.9 372 186.7 380.2 186.7C388.6 186.7 395.3 188.9 400.3 193.3C405.3 197.7 407.8 203 407.8 209.2C407.8 215.6 405.3 220.9 400.3 225.1C395.3 229.1 388.6 231.1 380.2 231.1C372 231.1 365.6 229.1 361 225.1C356.4 220.9 354.1 215.6 354.1 209.2Z" fill="white"/>
<path d="M100.717 250V247H97.7172V250H100.717ZM153.217 250L156.143 249.335L155.612 247H153.217V250ZM157.717 269.8L154.792 270.465L155.323 272.8H157.717V269.8ZM158.917 269.8V272.8H160.455L161.353 271.551L158.917 269.8ZM178.717 253L177.255 250.38L177.255 250.38L178.717 253ZM230.317 248.8L229.422 251.663L229.435 251.667L229.447 251.671L230.317 248.8ZM247.117 258.7L244.996 260.821L244.996 260.821L247.117 258.7ZM257.917 277.6L255.064 278.527L255.078 278.571L255.094 278.614L257.917 277.6ZM262.117 400V403H265.117V400H262.117ZM223.117 400H220.117V403H223.117V400ZM214.717 288.4L212.596 290.521L212.615 290.541L212.635 290.56L214.717 288.4ZM173.617 286.9L175.338 289.358L175.346 289.352L175.353 289.347L173.617 286.9ZM161.317 302.8L158.48 301.825L158.317 302.299V302.8H161.317ZM161.317 400V403H164.317V400H161.317ZM122.317 400H119.317V403H122.317V400ZM122.317 283H125.317V280H122.317V283ZM100.717 283H97.7172V286H100.717V283ZM100.717 253H153.217V247H100.717V253ZM150.292 250.665L154.792 270.465L160.643 269.135L156.143 249.335L150.292 250.665ZM157.717 272.8H158.917V266.8H157.717V272.8ZM161.353 271.551C165.64 265.586 171.87 260.257 180.179 255.62L177.255 250.38C168.364 255.343 161.394 261.214 156.481 268.049L161.353 271.551ZM180.179 255.62C188.244 251.118 198.018 248.8 209.617 248.8V242.8C197.216 242.8 186.39 245.282 177.255 250.38L180.179 255.62ZM209.617 248.8C216.745 248.8 223.34 249.763 229.422 251.663L231.212 245.937C224.494 243.837 217.289 242.8 209.617 242.8V248.8ZM229.447 251.671C235.604 253.537 240.766 256.591 244.996 260.821L249.239 256.579C244.268 251.609 238.23 248.063 231.187 245.929L229.447 251.671ZM244.996 260.821C249.178 265.003 252.569 270.85 255.064 278.527L260.77 276.673C258.065 268.35 254.257 261.597 249.239 256.579L244.996 260.821ZM255.094 278.614C257.74 285.987 259.117 295.318 259.117 306.7H265.117C265.117 294.882 263.694 284.813 260.741 276.586L255.094 278.614ZM259.117 306.7V400H265.117V306.7H259.117ZM262.117 397H223.117V403H262.117V397ZM226.117 400V314.8H220.117V400H226.117ZM226.117 314.8C226.117 302.237 223.246 292.457 216.8 286.24L212.635 290.56C217.388 295.143 220.117 302.963 220.117 314.8H226.117ZM216.839 286.279C210.817 280.257 203.125 277.3 194.017 277.3V283.3C201.709 283.3 207.817 285.743 212.596 290.521L216.839 286.279ZM194.017 277.3C185.977 277.3 178.573 279.704 171.881 284.453L175.353 289.347C181.061 285.296 187.257 283.3 194.017 283.3V277.3ZM171.897 284.442C165.422 288.974 160.904 294.775 158.48 301.825L164.154 303.775C166.131 298.025 169.812 293.226 175.338 289.358L171.897 284.442ZM158.317 302.8V400H164.317V302.8H158.317ZM161.317 397H122.317V403H161.317V397ZM125.317 400V283H119.317V400H125.317ZM122.317 280H100.717V286H122.317V280ZM103.717 283V250H97.7172V283H103.717ZM305.2 250V247H302.2V250H305.2ZM415.6 250H418.6V247H415.6V250ZM315.7 457.9L316.668 455.06L316.668 455.06L315.7 457.9ZM292.9 444.7L290.332 443.149L289.054 445.264L290.885 446.923L292.9 444.7ZM310.3 415.9L312.2 413.578L309.522 411.387L307.732 414.349L310.3 415.9ZM322 422.5L323.304 419.798L323.284 419.789L323.263 419.779L322 422.5ZM355 424.3L354.09 421.441L354.01 421.467L353.932 421.497L355 424.3ZM366.4 416.8L364.215 414.744L364.186 414.775L364.158 414.807L366.4 416.8ZM373.9 403.3L376.756 404.218L373.9 403.3ZM376.6 283H379.6V280H376.6V283ZM305.2 283H302.2V286H305.2V283ZM361 193.3L363.074 195.468L363.074 195.468L361 193.3ZM400.3 193.3L398.318 195.552L398.318 195.552L400.3 193.3ZM400.3 225.1L402.174 227.443L402.202 227.42L402.23 227.397L400.3 225.1ZM361 225.1L358.977 227.315L359.004 227.34L359.031 227.364L361 225.1ZM305.2 253H415.6V247H305.2V253ZM412.6 250V388.3H418.6V250H412.6ZM412.6 388.3C412.6 410.776 406.746 428.079 395.38 440.582L399.82 444.618C412.454 430.721 418.6 411.824 418.6 388.3H412.6ZM395.38 440.582C384.126 452.962 367.06 459.4 343.6 459.4V465.4C368.14 465.4 387.074 458.638 399.82 444.618L395.38 440.582ZM343.6 459.4C334.111 459.4 325.14 457.949 316.668 455.06L314.732 460.74C323.86 463.851 333.489 465.4 343.6 465.4V459.4ZM316.668 455.06C308.225 452.182 300.989 447.982 294.915 442.477L290.885 446.923C297.611 453.018 305.575 457.618 314.732 460.74L316.668 455.06ZM295.468 446.251L312.868 417.451L307.732 414.349L290.332 443.149L295.468 446.251ZM308.4 418.222C310.913 420.278 315.11 422.609 320.737 425.221L323.263 419.779C317.69 417.191 314.087 415.122 312.2 413.578L308.4 418.222ZM320.696 425.202C326.948 428.22 333.902 429.7 341.5 429.7V423.7C334.698 423.7 328.652 422.38 323.304 419.798L320.696 425.202ZM341.5 429.7C346.64 429.7 351.504 428.842 356.068 427.103L353.932 421.497C350.096 422.958 345.96 423.7 341.5 423.7V429.7ZM355.91 427.159C360.846 425.588 365.1 422.778 368.642 418.793L364.158 414.807C361.3 418.022 357.954 420.212 354.09 421.441L355.91 427.159ZM368.585 418.856C372.159 415.058 374.854 410.135 376.756 404.218L371.044 402.382C369.346 407.665 367.041 411.742 364.215 414.744L368.585 418.856ZM376.756 404.218C378.683 398.224 379.6 390.89 379.6 382.3H373.6C373.6 390.51 372.717 397.176 371.044 402.382L376.756 404.218ZM379.6 382.3V283H373.6V382.3H379.6ZM376.6 280H305.2V286H376.6V280ZM308.2 283V250H302.2V283H308.2ZM357.1 209.2C357.1 203.843 359.048 199.319 363.074 195.468L358.926 191.132C353.752 196.081 351.1 202.157 351.1 209.2H357.1ZM363.074 195.468C366.968 191.743 372.541 189.7 380.2 189.7V183.7C371.459 183.7 364.232 186.057 358.926 191.132L363.074 195.468ZM380.2 189.7C388.067 189.7 393.998 191.75 398.318 195.552L402.282 191.048C396.602 186.05 389.133 183.7 380.2 183.7V189.7ZM398.318 195.552C402.725 199.43 404.8 203.932 404.8 209.2H410.8C410.8 202.068 407.875 195.97 402.282 191.048L398.318 195.552ZM404.8 209.2C404.8 214.693 402.708 219.16 398.37 222.803L402.23 227.397C407.892 222.64 410.8 216.507 410.8 209.2H404.8ZM398.426 222.757C394.104 226.215 388.133 228.1 380.2 228.1V234.1C389.067 234.1 396.496 231.985 402.174 227.443L398.426 222.757ZM380.2 228.1C372.472 228.1 366.859 226.219 362.969 222.836L359.031 227.364C364.341 231.981 371.528 234.1 380.2 234.1V228.1ZM363.023 222.885C359.064 219.27 357.1 214.783 357.1 209.2H351.1C351.1 216.417 353.736 222.53 358.977 227.315L363.023 222.885Z" fill="#00D26D" mask="url(#path-1-outside-1_417_2)"/>
</svg>
